<svg width="24" height="24" viewBox="0 0 24 24" fill="none" xmlns="http://www.w3.org/2000/svg">
  <path d="M20 10H4C2.89543 10 2 10.8954 2 12V14C2 14.5523 2.44772 15 3 15V19C3 20.6569 4.34315 22 6 22H18C19.6569 22 21 20.6569 21 19V15C21.5523 15 22 14.5523 22 14V12C22 10.8954 21.1046 10 20 10Z" stroke="currentColor" stroke-width="2" stroke-linecap="round" stroke-linejoin="round"/>
  <path d="M8 10V6C8 3.79086 9.79086 2 12 2C14.2091 2 16 3.79086 16 6V10" stroke="currentColor" stroke-width="2" stroke-linecap="round" stroke-linejoin="round"/>
  <path d="M6 14L18 22" stroke="currentColor" stroke-width="1.5" stroke-linecap="round" stroke-linejoin="round"/>
  <path d="M18 14L6 22" stroke="currentColor" stroke-width="1.5" stroke-linecap="round" stroke-linejoin="round"/>
  <path d="M12 14V22" stroke="currentColor" stroke-width="1.5" stroke-linecap="round" stroke-linejoin="round"/>
  <path d="M20 14L4 14" stroke="currentColor" stroke-width="1.5" stroke-linecap="round" stroke-linejoin="round"/>
</svg>
